<?xml version="1.0" encoding="UTF-8" standalone="no"?>
<!DOCTYPE svg PUBLIC "-//W3C//DTD SVG 1.1//EN" "http://www.w3.org/Graphics/SVG/1.1/DTD/svg11.dtd">
<svg width="100%" height="100%" viewBox="0 0 1042 339" version="1.1" xmlns="http://www.w3.org/2000/svg" xmlns:xlink="http://www.w3.org/1999/xlink" xml:space="preserve" xmlns:serif="http://www.serif.com/" style="fill-rule:evenodd;clip-rule:evenodd;stroke-linejoin:round;stroke-miterlimit:2;">
    <g transform="matrix(-1.05164,0,0,1,466.985,-0.0365963)">
        <path d="M189.643,100.692L213.696,100.974C213.696,100.974 216.279,100.905 216.631,97.302C216.984,93.698 213.789,92.888 211.68,92.929C209.571,92.97 188.119,95.892 188.119,95.892L189.643,100.692Z" style="fill:rgb(11,63,88);"/>
        <path d="M189.629,102.076C189.068,102.07 188.572,101.69 188.395,101.131L186.871,96.33C186.746,95.938 186.795,95.507 187.004,95.157C187.213,94.806 187.56,94.572 187.95,94.519C187.95,94.519 197.462,93.223 204.445,92.345C208.016,91.896 210.938,91.559 211.656,91.545C213.322,91.512 215.505,91.991 216.785,93.43C217.6,94.346 218.118,95.631 217.941,97.443C217.759,99.303 217.083,100.426 216.38,101.128C215.154,102.351 213.73,102.357 213.73,102.357C213.714,102.358 213.698,102.358 213.682,102.358L189.629,102.076ZM190.595,99.319L213.671,99.589C213.743,99.58 214.325,99.493 214.761,98.893C215.04,98.51 215.245,97.951 215.322,97.16C215.425,96.108 215.086,95.421 214.514,95.011C213.701,94.429 212.58,94.295 211.705,94.313C211.013,94.326 208.198,94.661 204.758,95.094C199.525,95.752 192.869,96.645 189.874,97.049L190.595,99.319Z" style="fill:rgb(11,63,88);"/>
    </g>
    <g transform="matrix(-1.05164,0,0,1,376.558,0.305462)">
        <path d="M189.643,100.692L213.696,100.974C213.696,100.974 216.279,100.905 216.631,97.302C216.984,93.698 213.789,92.888 211.68,92.929C209.571,92.97 188.119,95.892 188.119,95.892L189.643,100.692Z" style="fill:rgb(11,63,88);"/>
        <path d="M189.629,102.076C189.068,102.07 188.572,101.69 188.395,101.131L186.871,96.33C186.746,95.938 186.795,95.507 187.004,95.157C187.213,94.806 187.56,94.572 187.95,94.519C187.95,94.519 197.462,93.223 204.445,92.345C208.016,91.896 210.938,91.559 211.656,91.545C213.322,91.512 215.505,91.991 216.785,93.43C217.6,94.346 218.118,95.631 217.941,97.443C217.759,99.303 217.083,100.426 216.38,101.128C215.154,102.351 213.73,102.357 213.73,102.357C213.714,102.358 213.698,102.358 213.682,102.358L189.629,102.076ZM190.595,99.319L213.671,99.589C213.743,99.58 214.325,99.493 214.761,98.893C215.04,98.51 215.245,97.951 215.322,97.16C215.425,96.108 215.086,95.421 214.514,95.011C213.701,94.429 212.58,94.295 211.705,94.313C211.013,94.326 208.198,94.661 204.758,95.094C199.525,95.752 192.869,96.645 189.874,97.049L190.595,99.319Z" style="fill:rgb(11,63,88);"/>
    </g>
    <g transform="matrix(1.05498,0,0,1,79.4029,0)">
        <path d="M189.643,100.692L213.696,100.974C213.696,100.974 216.279,100.905 216.631,97.302C216.984,93.698 213.789,92.888 211.68,92.929C209.571,92.97 188.119,95.892 188.119,95.892L189.643,100.692Z" style="fill:rgb(11,63,88);"/>
        <path d="M188.399,101.132C188.577,101.691 189.07,102.07 189.629,102.076L213.682,102.358C213.698,102.358 213.714,102.358 213.729,102.357C213.729,102.357 215.149,102.351 216.373,101.131C217.077,100.43 217.754,99.306 217.936,97.444C218.114,95.628 217.594,94.341 216.776,93.424C215.497,91.99 213.319,91.512 211.656,91.545C210.938,91.559 208.017,91.896 204.447,92.345C197.463,93.223 187.951,94.519 187.951,94.519C187.562,94.572 187.215,94.806 187.007,95.157C186.799,95.508 186.75,95.939 186.875,96.331L188.399,101.132ZM190.591,99.319L189.87,97.05C192.864,96.646 199.522,95.752 204.757,95.094C208.198,94.661 211.012,94.326 211.705,94.313C212.58,94.295 213.702,94.429 214.516,95.011C215.088,95.42 215.429,96.107 215.326,97.159C215.249,97.95 215.044,98.51 214.764,98.893C214.337,99.479 213.771,99.576 213.677,99.588C213.671,99.589 190.591,99.319 190.591,99.319L190.591,99.319Z" style="fill:rgb(11,63,88);"/>
    </g>
    <rect x="182.319" y="104.131" width="2.17" height="5.431" style="fill:rgb(11,63,88);"/>
    <path d="M186.623,104.131C186.623,102.953 185.668,101.997 184.489,101.997L182.319,101.997C181.14,101.997 180.185,102.953 180.185,104.131L180.185,109.562C180.185,110.741 181.14,111.697 182.319,111.697L184.489,111.697C185.668,111.697 186.623,110.741 186.623,109.562L186.623,104.131Z" style="fill:rgb(11,63,88);"/>
    <rect x="271.119" y="103.343" width="2.199" height="6.194" style="fill:rgb(11,63,88);"/>
    <path d="M274.702,103.343C274.702,102.578 274.083,101.959 273.318,101.959L271.119,101.959C270.355,101.959 269.735,102.578 269.735,103.343L269.735,109.537C269.735,110.301 270.355,110.921 271.119,110.921L273.318,110.921C274.083,110.921 274.702,110.301 274.702,109.537L274.702,103.343Z" style="fill:rgb(11,63,88);"/>
    <g transform="matrix(1.0501,0,0,1,-9.42389,0)">
        <path d="M189.643,100.692L213.696,100.974C213.696,100.974 216.279,100.905 216.631,97.302C216.984,93.698 213.789,92.888 211.68,92.929C209.571,92.97 188.119,95.892 188.119,95.892L189.643,100.692Z" style="fill:rgb(11,63,88);"/>
        <path d="M188.393,101.13C188.57,101.69 189.067,102.07 189.628,102.076L213.682,102.358C213.698,102.358 213.714,102.358 213.73,102.357C213.73,102.357 215.156,102.352 216.383,101.126C217.085,100.424 217.761,99.301 217.943,97.443C218.12,95.633 217.602,94.349 216.789,93.433C215.508,91.992 213.323,91.512 211.656,91.545C210.938,91.559 208.016,91.896 204.445,92.345C197.461,93.223 187.949,94.519 187.949,94.519C187.559,94.572 187.211,94.806 187.002,95.156C186.793,95.507 186.744,95.937 186.869,96.329L188.393,101.13ZM190.597,99.319L189.876,97.049C192.871,96.645 199.526,95.752 204.759,95.094C208.199,94.661 211.013,94.326 211.705,94.313C212.579,94.295 213.701,94.428 214.513,95.011C215.085,95.421 215.423,96.109 215.32,97.16C215.243,97.951 215.038,98.51 214.759,98.893C214.333,99.479 213.77,99.576 213.676,99.588C213.671,99.589 190.597,99.319 190.597,99.319L190.597,99.319Z" style="fill:rgb(11,63,88);"/>
    </g>
    <g transform="matrix(-0.665531,-0.00346806,0.00298148,-0.572155,393.82,166.557)">
        <path d="M177.99,111.115L189.496,111.199C189.496,111.199 192.553,114.627 185.338,125.109C184.328,126.577 184.612,126.265 183.892,126.349C182.156,126.55 180.49,125.943 179.159,121.999C177.287,116.452 174.66,111.408 177.99,111.115Z" style="fill:rgb(11,63,88);"/>
        <path d="M178.01,107.385C177.923,107.384 177.835,107.388 177.748,107.396C176.252,107.527 175.253,108.173 174.559,108.958C173.877,109.73 173.429,110.71 173.259,111.92C173.124,112.882 173.188,114.095 173.51,115.482C173.997,117.584 175.178,120.409 176.174,123.362C177.166,126.301 178.398,127.902 179.59,128.828C181.062,129.971 182.611,130.245 184.21,130.06C185.184,129.948 185.518,129.836 185.899,129.614C186.213,129.43 186.713,129.08 187.842,127.44C191.157,122.624 192.514,119.058 193.034,116.567C194.268,110.66 191.722,108.514 191.722,108.514C191.129,107.849 190.339,107.475 189.516,107.469L178.01,107.385ZM187.24,113.849L187.228,113.836L187.208,113.811L187.141,113.73C187.112,113.693 187.072,113.64 187.026,113.569C187.005,113.536 186.908,113.37 186.908,113.37L186.905,113.395C186.517,112.779 186.289,112.019 186.29,111.197C186.291,109.146 187.716,107.48 189.48,107.469L187.24,113.849ZM183.033,122.484C182.995,122.45 182.959,122.407 182.923,122.356C182.641,121.944 182.394,121.376 182.144,120.636C181.434,118.533 180.578,116.522 180.053,114.86L186.588,114.908C186.159,116.528 185.183,119.283 183.033,122.484Z" style="fill:rgb(11,63,88);"/>
    </g>
    <g transform="matrix(-0.665531,-0.00346806,0.00298148,-0.572155,305.119,167.102)">
        <path d="M177.99,111.115L189.496,111.199C189.496,111.199 192.553,114.627 185.338,125.109C184.328,126.577 184.612,126.265 183.892,126.349C182.156,126.55 180.49,125.943 179.159,121.999C177.287,116.452 174.66,111.408 177.99,111.115Z" style="fill:rgb(11,63,88);"/>
        <path d="M178.01,107.385C177.923,107.384 177.835,107.388 177.748,107.396C176.252,107.527 175.253,108.173 174.559,108.958C173.877,109.73 173.429,110.71 173.259,111.92C173.124,112.882 173.188,114.095 173.51,115.482C173.997,117.584 175.178,120.409 176.174,123.362C177.166,126.301 178.398,127.902 179.59,128.828C181.062,129.971 182.611,130.245 184.21,130.06C185.184,129.948 185.518,129.836 185.899,129.614C186.213,129.43 186.713,129.08 187.842,127.44C191.157,122.624 192.514,119.058 193.034,116.567C194.268,110.66 191.722,108.514 191.722,108.514C191.129,107.849 190.339,107.475 189.516,107.469L178.01,107.385ZM187.24,113.849L187.228,113.836L187.208,113.811L187.141,113.73C187.112,113.693 187.072,113.64 187.026,113.569C187.005,113.536 186.908,113.37 186.908,113.37L186.905,113.395C186.517,112.779 186.289,112.019 186.29,111.197C186.291,109.146 187.716,107.48 189.48,107.469L187.24,113.849ZM183.033,122.484C182.995,122.45 182.959,122.407 182.923,122.356C182.641,121.944 182.394,121.376 182.144,120.636C181.434,118.533 180.578,116.522 180.053,114.86L186.588,114.908C186.159,116.528 185.183,119.283 183.033,122.484Z" style="fill:rgb(11,63,88);"/>
    </g>
    <g transform="matrix(1,0,0,1,89.1827,0.353432)">
        <path d="M177.99,111.115L189.496,111.199C189.496,111.199 192.553,114.627 185.338,125.109C184.328,126.577 184.612,126.265 183.892,126.349C182.156,126.55 180.49,125.943 179.159,121.999C177.287,116.452 174.66,111.408 177.99,111.115Z" style="fill:rgb(11,63,88);"/>
        <path d="M178.005,108.981C177.938,108.98 177.87,108.983 177.803,108.989C176.717,109.084 175.951,109.481 175.398,110.009C174.775,110.604 174.378,111.415 174.283,112.462C174.196,113.419 174.399,114.687 174.838,116.15C175.397,118.017 176.335,120.304 177.137,122.682C177.94,125.061 178.912,126.443 179.871,127.256C181.224,128.404 182.659,128.64 184.138,128.469C185.104,128.357 185.366,128.264 185.75,127.983C185.972,127.821 186.313,127.456 187.096,126.319C190.251,121.736 191.551,118.382 192.026,116.035C192.948,111.474 191.089,109.779 191.089,109.779C190.688,109.329 190.115,109.07 189.512,109.065L178.005,108.981ZM178.588,113.254L187.99,113.322C188.072,114.251 187.884,115.662 187.057,117.703C186.374,119.39 185.276,121.435 183.58,123.899L183.343,124.241C183.01,124.228 182.685,124.106 182.386,123.751C181.946,123.23 181.561,122.441 181.181,121.317C180.396,118.989 179.474,116.752 178.926,114.925C178.767,114.393 178.65,113.69 178.588,113.254Z" style="fill:rgb(11,63,88);"/>
    </g>
    <path d="M177.99,111.115L189.496,111.199C189.496,111.199 192.553,114.627 185.338,125.109C184.328,126.577 184.612,126.265 183.892,126.349C182.156,126.55 180.49,125.943 179.159,121.999C177.287,116.452 174.66,111.408 177.99,111.115Z" style="fill:rgb(11,63,88);"/>
    <path d="M178.005,108.981C177.938,108.98 177.87,108.983 177.803,108.989C176.717,109.084 175.951,109.481 175.398,110.009C174.775,110.604 174.378,111.415 174.283,112.462C174.196,113.419 174.399,114.687 174.838,116.15C175.397,118.017 176.335,120.304 177.137,122.682C177.94,125.061 178.912,126.443 179.871,127.256C181.224,128.404 182.659,128.64 184.138,128.469C185.104,128.357 185.366,128.264 185.75,127.983C185.972,127.821 186.313,127.456 187.096,126.319C190.251,121.736 191.551,118.382 192.026,116.035C192.948,111.474 191.089,109.779 191.089,109.779C190.688,109.329 190.115,109.07 189.512,109.065L178.005,108.981ZM178.588,113.254L187.99,113.322C188.072,114.251 187.884,115.662 187.057,117.703C186.374,119.39 185.276,121.435 183.58,123.899L183.343,124.241C183.01,124.228 182.685,124.106 182.386,123.751C181.946,123.23 181.561,122.441 181.181,121.317C180.396,118.989 179.474,116.752 178.926,114.925C178.767,114.393 178.65,113.69 178.588,113.254Z" style="fill:rgb(11,63,88);"/>
    <path d="M901.939,95.535L902.455,247.419C902.455,247.419 898.618,264.297 917.701,264.449C936.785,264.601 985.431,264.118 985.431,264.118C985.431,264.118 1005.3,263.198 1004.41,245.389C1003.51,227.581 991.979,228.965 982.892,228.959C973.805,228.952 943.156,228.325 943.156,228.325L943.024,189.783L971.314,189.102C971.314,189.102 987.523,189.621 987.564,171.142C987.604,152.663 970.141,153.233 970.141,153.233L942.552,152.534L942.596,116.973L985.96,115.892C985.96,115.892 1004.37,114.483 1003.84,97.56C1003.31,80.638 984.295,79.51 984.295,79.51L914.176,79.569C914.176,79.569 902.466,79.741 901.939,95.535Z" style="fill:rgb(28,87,115);"/>
    <path d="M899.806,95.464C899.805,95.49 899.804,95.516 899.805,95.542L900.32,247.226C900.048,248.759 899.008,256.321 903.8,261.525C906.365,264.311 910.607,266.527 917.684,266.583C924.274,266.636 934.385,266.613 944.805,266.56C964.574,266.459 985.453,266.252 985.453,266.252C985.478,266.251 985.504,266.251 985.53,266.25C985.53,266.25 994.411,265.819 1000.57,260.433C1004.16,257.296 1006.9,252.542 1006.54,245.282C1006.1,236.604 1003.23,232.06 999.5,229.6C994.822,226.515 988.447,226.829 982.893,226.825C979.606,226.822 973.492,226.738 967.032,226.632C958.468,226.492 949.298,226.313 945.283,226.233C945.283,226.233 945.166,191.866 945.166,191.866C945.166,191.866 971.329,191.236 971.329,191.236C972.134,191.245 979.901,191.165 985.084,185.254C987.68,182.293 989.683,177.858 989.698,171.147C989.713,164.178 987.428,159.658 984.491,156.693C978.985,151.133 970.943,151.089 970.137,151.099C970.157,151.099 944.688,150.454 944.688,150.454C944.688,150.454 944.727,119.055 944.727,119.055C944.727,119.055 986.014,118.025 986.014,118.025C986.05,118.024 986.087,118.022 986.123,118.02C986.123,118.02 994.479,117.367 1000.3,111.973C1003.63,108.894 1006.19,104.321 1005.97,97.493C1005.76,90.62 1002.8,86.077 999.15,83.063C992.881,77.89 984.421,77.38 984.421,77.38C984.379,77.377 984.336,77.376 984.293,77.376L914.174,77.435C914.164,77.435 914.154,77.435 914.144,77.435C914.144,77.435 907.436,77.474 903.143,83.782C901.371,86.386 899.985,90.108 899.806,95.464ZM904.073,95.569C904.221,91.28 905.25,88.273 906.672,86.183C909.512,82.011 913.829,81.721 914.184,81.704C914.201,81.703 984.224,81.644 984.224,81.644C984.918,81.696 991.495,82.281 996.433,86.355C999.281,88.705 1001.54,92.269 1001.71,97.628C1001.87,102.902 999.971,106.463 997.403,108.842C992.905,113.008 986.551,113.695 985.859,113.758C985.845,113.76 942.543,114.84 942.543,114.84C941.386,114.869 940.463,115.814 940.462,116.971L940.417,152.532C940.416,153.69 941.339,154.639 942.498,154.668L970.087,155.367C970.129,155.368 970.17,155.368 970.211,155.366C970.211,155.366 976.937,155.131 981.459,159.696C983.774,162.034 985.442,165.644 985.43,171.137C985.418,176.495 983.947,180.077 981.874,182.44C977.723,187.175 971.382,186.969 971.382,186.969C971.342,186.967 971.302,186.967 971.262,186.968L942.973,187.649C941.812,187.677 940.886,188.628 940.89,189.79L941.022,228.332C941.026,229.491 941.954,230.435 943.113,230.458C943.113,230.458 955.573,230.714 966.962,230.9C973.449,231.006 979.589,231.09 982.89,231.093C987.643,231.096 993.147,230.523 997.15,233.163C1000.05,235.075 1001.94,238.754 1002.28,245.497C1002.56,251.097 1000.53,254.8 997.764,257.219C992.914,261.458 986.012,261.947 985.38,261.983C984.304,261.995 964.018,262.194 944.783,262.291C934.385,262.344 924.294,262.367 917.718,262.315C912.263,262.272 908.917,260.782 906.94,258.634C903.004,254.359 904.536,247.892 904.536,247.892C904.572,247.735 904.59,247.574 904.589,247.412L904.073,95.569L904.073,95.569Z" style="fill:rgb(28,87,115);"/>
    <path d="M479.35,97.513L478.887,251.958C478.887,251.958 477.514,267.1 492.792,267.542C504.775,267.888 552.34,266.618 552.34,266.618C552.34,266.618 599.295,262.666 601.249,218.621C603.202,174.576 568.319,169.606 569.562,169.835C570.805,170.065 596.486,149.871 595.436,126.237C594.385,102.604 577.148,85.011 549.575,82.53C522.003,80.048 493.059,81.927 490.102,82.013C487.145,82.099 480.373,85.245 479.35,97.513ZM519.106,112.908L519.047,157.159L539.578,157.159C539.578,157.159 556.27,155.861 556.77,136.717C557.271,117.572 539.942,112.826 538.988,112.825C538.034,112.823 519.106,112.908 519.106,112.908ZM518.888,186.593L519.154,236.033L544.463,235.708C544.463,235.708 561.259,233.405 560.67,212.437C560.081,191.468 549.204,187.231 539.857,186.739C534.79,186.472 518.888,186.593 518.888,186.593Z" style="fill:rgb(28,87,115);"/>
    <path d="M572.658,169.345C576.282,166.581 583.238,160.159 588.726,151.666C593.448,144.359 597.069,135.528 596.654,126.183C596.089,113.468 590.955,102.459 582.135,94.484C574.147,87.261 563.119,82.524 549.685,81.315C539.468,80.396 529.065,80.072 519.855,80.035C504.156,79.972 491.934,80.74 490.067,80.794C488.205,80.848 484.97,81.916 482.301,85.303C480.316,87.822 478.614,91.666 478.135,97.412C478.132,97.444 478.131,97.477 478.131,97.509L477.668,251.912C477.62,252.596 477.276,259.145 481.263,263.859C483.487,266.489 487.039,268.595 492.756,268.761C496.318,268.864 503.015,268.825 510.675,268.718C528.815,268.466 552.372,267.837 552.372,267.837C552.396,267.837 552.419,267.835 552.442,267.833C552.442,267.833 572.421,266.15 587.121,252.86C595.23,245.529 601.757,234.689 602.467,218.675C603.086,204.725 600.066,194.615 595.674,187.303C588.673,175.647 578.152,171.058 572.947,169.433C572.849,169.403 572.752,169.373 572.658,169.345ZM569.371,168.632C569.77,168.441 570.496,167.941 571.463,167.187C575.669,163.911 583.942,156.038 589.29,145.889C592.404,139.98 594.529,133.293 594.217,126.291C593.683,114.262 588.844,103.838 580.499,96.293C572.864,89.389 562.308,84.9 549.466,83.744C539.321,82.831 528.99,82.511 519.845,82.474C504.188,82.411 492,83.178 490.137,83.232C488.443,83.281 485.384,84.556 483.166,88.363C481.893,90.549 480.911,93.539 480.57,97.566L480.57,97.566C480.56,100.712 480.107,251.962 480.107,251.962C480.107,251.998 480.105,252.033 480.102,252.069C480.102,252.069 479.545,258.051 483.125,262.284C484.996,264.496 488.018,266.184 492.827,266.323C497.268,266.451 506.607,266.356 516.593,266.187C533.082,265.908 551.33,265.425 552.277,265.399C553.243,265.31 571.763,263.456 585.486,251.051C593.188,244.088 599.356,233.778 600.03,218.567C600.622,205.228 597.782,195.55 593.583,188.559C587.002,177.602 577.113,173.289 572.22,171.762C570.942,171.363 570.011,171.156 569.58,171.073C569.546,171.067 569.513,171.059 569.482,171.051C569.428,171.048 569.38,171.042 569.34,171.034C568.58,170.894 567.835,168.768 569.371,168.632ZM518.879,185.373C518.206,185.378 517.665,185.927 517.669,186.599L517.935,236.04C517.936,236.365 518.068,236.675 518.3,236.903C518.532,237.131 518.845,237.257 519.17,237.252L544.478,236.927C544.529,236.927 544.579,236.923 544.628,236.916C544.628,236.916 552.972,235.794 558.074,227.977C560.412,224.395 562.085,219.392 561.889,212.403C561.649,203.857 559.724,197.999 556.934,193.992C552.527,187.665 545.937,185.838 539.921,185.521C538.094,185.425 534.867,185.378 531.478,185.358C525.438,185.323 518.879,185.373 518.879,185.373ZM520.114,187.804C522.285,187.792 527.015,187.772 531.464,187.797C534.807,187.817 537.991,187.862 539.793,187.957C545.131,188.238 551.022,189.771 554.932,195.386C557.519,199.1 559.229,204.55 559.451,212.471C559.629,218.826 558.157,223.387 556.032,226.644C551.822,233.094 545.111,234.366 544.365,234.489C544.362,234.489 520.367,234.798 520.367,234.798L520.114,187.804ZM569.699,168.632C569.734,168.631 569.764,168.632 569.783,168.636L569.816,168.643L569.726,168.634L569.699,168.632ZM519.101,111.689C518.43,111.692 517.888,112.236 517.887,112.907L517.827,157.157C517.827,157.481 517.955,157.791 518.184,158.02C518.413,158.25 518.723,158.378 519.047,158.378L539.578,158.378C539.61,158.378 539.642,158.377 539.673,158.375C539.673,158.375 547.716,157.76 553.152,151.156C555.778,147.966 557.816,143.375 557.99,136.749C558.173,129.732 556.061,124.56 553.211,120.794C549.192,115.484 543.674,112.976 540.935,112.068C539.889,111.721 539.178,111.606 538.99,111.605L519.101,111.689ZM520.324,114.123L538.986,114.044C538.978,114.044 538.946,114.046 538.946,114.046C538.946,114.046 539.594,114.193 540.167,114.383C542.644,115.204 547.634,117.466 551.266,122.266C553.84,125.667 555.717,130.347 555.551,136.685C555.396,142.62 553.621,146.749 551.269,149.606C546.74,155.108 540.154,155.877 539.532,155.938C539.524,155.939 520.268,155.939 520.268,155.939L520.324,114.123Z" style="fill:rgb(28,87,115);"/>
    <g transform="matrix(1,0,0,1,-1.02328,-0.88429)">
        <ellipse cx="647.589" cy="126.691" rx="6.094" ry="6.048" style="fill:rgb(11,63,88);"/>
        <path d="M647.589,119.423C645.577,119.423 643.754,120.232 642.431,121.539C641.1,122.857 640.276,124.679 640.276,126.691C640.276,128.702 641.1,130.525 642.431,131.842C643.754,133.149 645.577,133.959 647.589,133.959C649.601,133.959 651.424,133.149 652.747,131.842C654.079,130.525 654.903,128.702 654.903,126.691C654.903,124.679 654.079,122.857 652.747,121.539C651.424,120.232 649.601,119.423 647.589,119.423ZM647.589,121.862C648.932,121.862 650.149,122.401 651.032,123.274C651.915,124.148 652.463,125.356 652.463,126.691C652.463,128.025 651.915,129.234 651.032,130.108C650.149,130.98 648.932,131.52 647.589,131.52C646.246,131.52 645.029,130.98 644.146,130.108C643.263,129.234 642.715,128.025 642.715,126.691C642.715,125.356 643.263,124.148 644.146,123.274C645.029,122.401 646.246,121.862 647.589,121.862Z" style="fill:rgb(11,63,88);"/>
    </g>
    <path d="M641.988,139.959C641.988,139.959 632.546,258.568 632.331,258.681C632.115,258.794 608.788,259.24 608.788,259.24L608.694,266.066L683.45,265.963L683.545,259.077L659.839,259.162L652.209,158.377C652.209,158.377 641.821,151.72 641.988,139.959Z" style="fill:rgb(11,63,88);"/>
    <path d="M631.231,257.518C630.878,257.53 630.444,257.544 629.943,257.558C623.984,257.729 608.765,258.02 608.765,258.02C608.107,258.033 607.578,258.565 607.568,259.223L607.474,266.049C607.47,266.376 607.597,266.691 607.826,266.923C608.056,267.155 608.369,267.286 608.695,267.285L683.452,267.183C684.118,267.182 684.661,266.646 684.67,265.98L684.765,259.094C684.769,258.767 684.642,258.452 684.412,258.219C684.182,257.987 683.868,257.857 683.541,257.858L660.969,257.939C660.969,257.939 653.425,158.285 653.425,158.285C653.396,157.903 653.189,157.557 652.867,157.35C652.867,157.35 648.735,154.691 645.868,149.788C644.327,147.152 643.152,143.861 643.208,139.977C643.217,139.319 642.703,138.772 642.045,138.741C641.388,138.71 640.825,139.207 640.772,139.863C640.772,139.863 634.659,216.653 632.159,246.715C631.733,251.827 631.413,255.586 631.245,257.384L631.231,257.518ZM642.524,148.585C642.899,149.444 643.317,150.256 643.763,151.019C646.304,155.365 649.749,158.114 651.037,159.047C651.036,159.047 658.623,259.254 658.623,259.254C658.671,259.892 659.204,260.384 659.843,260.382L682.309,260.301C682.309,260.301 682.248,264.745 682.248,264.745C682.248,264.745 609.93,264.845 609.93,264.845C609.93,264.845 609.991,260.436 609.991,260.436C613.681,260.364 625.052,260.139 630.013,259.996C631.044,259.966 631.802,259.94 632.165,259.92C632.618,259.894 632.86,259.78 632.898,259.76C632.938,259.739 633.461,259.503 633.561,258.717C633.583,258.538 633.621,258.164 633.673,257.611C633.842,255.809 634.163,252.041 634.589,246.917C636.58,222.982 640.861,169.426 642.524,148.585L642.524,148.585Z" style="fill:rgb(11,63,88);"/>
    <path d="M360.735,113.161L361.119,162.177L383.305,162.193C384.408,161.969 401.427,159.437 401.851,143.652C401.996,138.263 402.25,139.26 402.148,130.56C401.967,115.193 385.586,112.423 383.252,112.346C376.803,112.133 360.735,113.161 360.735,113.161ZM319.613,99.761C319.613,99.761 321.736,250.852 321.615,250.707C321.572,250.655 320.679,266.511 333.395,266.775C340.208,266.916 340.038,267.086 347.235,266.962C357.963,266.778 360.084,255.496 360.143,251.145C360.356,235.589 359.989,192.899 359.989,192.899L382.307,192.965C382.307,192.965 395.823,192.251 395.983,207.318C396.142,222.385 397.202,251.457 397.202,251.457C397.202,251.457 399.776,268.58 420.964,268.438C427.535,268.394 428.94,268.415 431.964,268.037C441.019,266.908 443.984,262.753 444.284,255.093C444.606,246.86 443.379,245.382 437.664,240.998C434.381,238.48 435.779,244.551 435.585,208.728C435.583,208.471 433.525,188.859 411.101,180.43C409.601,179.867 409.702,180.073 409.329,179.657C405.906,175.84 442.384,172.849 441.419,132.771C440.358,88.691 403.252,82.942 391.78,82.381C380.308,81.82 333.882,82.024 333.882,82.024C333.882,82.024 319.492,83.736 319.613,99.761Z" style="fill:rgb(28,87,115);"/>
    <path d="M320.401,250.605C320.394,250.649 320.389,250.695 320.386,250.742C320.375,250.926 320.361,251.312 320.37,251.848C320.403,253.959 320.796,258.473 323.002,262.154C324.89,265.305 328.055,267.884 333.369,267.994C337.76,268.085 339.255,268.188 341.683,268.217C343.035,268.233 344.674,268.226 347.256,268.182C352.409,268.093 355.756,265.674 357.902,262.583C360.582,258.724 361.327,253.772 361.363,251.161C361.437,245.715 361.441,236.945 361.414,227.843C361.371,213.563 361.254,198.466 361.218,194.122C361.218,194.122 382.303,194.185 382.303,194.185C382.326,194.185 382.348,194.184 382.371,194.183C382.371,194.183 387.873,193.886 391.542,197.804C393.375,199.76 394.715,202.765 394.763,207.331C394.815,212.236 394.962,218.623 395.138,225.01C395.501,238.256 395.984,251.501 395.984,251.501C395.985,251.547 395.99,251.593 395.996,251.638C395.996,251.638 397.24,260.063 405.125,265.402C408.78,267.877 413.874,269.705 420.972,269.657C424.936,269.631 427.032,269.627 428.73,269.547C429.89,269.492 430.869,269.403 432.115,269.247C436.747,268.67 439.882,267.305 441.958,265.208C444.288,262.854 445.33,259.538 445.503,255.14C445.666,250.97 445.41,248.428 444.494,246.403C443.475,244.15 441.626,242.501 438.406,240.031C438.022,239.736 437.691,239.539 437.408,239.385C437.206,239.275 436.934,239.124 436.868,239.087C436.858,239.059 436.837,239 436.826,238.955C436.798,238.843 436.777,238.711 436.758,238.554C436.479,236.178 436.917,229.593 436.804,208.722C436.803,208.541 435.895,199.205 428.154,190.449C424.425,186.231 419.108,182.137 411.53,179.289C411.216,179.171 410.939,179.074 410.719,179.001C410.925,178.857 411.17,178.708 411.448,178.55C415.627,176.176 426.288,172.298 433.975,162.325C439.123,155.645 442.963,146.247 442.638,132.741C442.218,115.28 436.238,103.707 428.426,96.031C416.065,83.882 399.031,81.515 391.84,81.163C388.418,80.996 381.897,80.896 374.423,80.839C356.806,80.704 333.877,80.805 333.877,80.805C333.831,80.805 333.784,80.808 333.738,80.814C333.738,80.814 326.84,81.626 322.293,87.296C320.046,90.098 318.351,94.086 318.394,99.77C318.394,99.773 318.394,99.776 318.394,99.778C318.394,99.778 319.765,197.399 320.241,235.627C320.321,242.133 320.376,246.917 320.394,249.207C320.399,249.877 320.401,250.33 320.4,250.548L320.401,250.605ZM322.821,250.791C322.832,250.721 322.838,250.646 322.839,250.565C322.84,250.342 322.838,249.876 322.833,249.188C322.815,246.896 322.76,242.108 322.679,235.597C322.206,197.526 320.844,100.553 320.833,99.749L320.833,99.749C320.796,94.777 322.23,91.273 324.196,88.822C327.862,84.249 333.301,83.34 333.96,83.244C335.438,83.237 357.398,83.148 374.404,83.278C381.836,83.334 388.319,83.433 391.721,83.599C398.596,83.935 414.898,86.156 426.717,97.77C434.165,105.09 439.799,116.151 440.2,132.8C440.508,145.593 436.92,154.509 432.043,160.836C424.622,170.464 414.278,174.138 410.243,176.429C409.398,176.91 408.789,177.361 408.439,177.768C408.075,178.192 407.913,178.621 407.887,179.026C407.856,179.504 407.994,179.994 408.422,180.471C408.677,180.756 408.841,180.88 409.037,180.987C409.25,181.103 409.563,181.155 410.672,181.572C417.805,184.253 422.817,188.095 426.326,192.064C433.413,200.08 434.364,208.57 434.365,208.735C434.479,229.796 434.054,236.441 434.336,238.838C434.512,240.333 434.962,240.77 435.589,241.167C435.897,241.363 436.329,241.512 436.921,241.966C439.71,244.105 441.389,245.458 442.272,247.408C443.072,249.176 443.208,251.405 443.065,255.045C442.922,258.717 442.17,261.526 440.224,263.492C438.459,265.276 435.752,266.336 431.813,266.827C430.272,267.019 429.163,267.105 427.539,267.15C426.025,267.191 424.075,267.197 420.956,267.218C414.483,267.262 409.825,265.64 406.492,263.383C399.918,258.93 398.548,252.068 398.419,251.339C398.378,250.23 397.922,237.587 397.576,224.943C397.401,218.571 397.254,212.199 397.202,207.305C397.145,201.937 395.477,198.437 393.322,196.137C389.08,191.608 382.817,191.727 382.279,191.746C382.287,191.745 359.992,191.68 359.992,191.68C359.666,191.679 359.354,191.808 359.124,192.039C358.894,192.27 358.766,192.584 358.769,192.91C358.769,192.91 358.924,210.952 358.975,227.85C359.002,236.936 358.998,245.691 358.924,251.128C358.892,253.427 358.259,257.794 355.899,261.192C354.15,263.711 351.414,265.671 347.214,265.743C344.665,265.787 343.046,265.794 341.712,265.778C339.29,265.749 337.8,265.647 333.42,265.556C330.118,265.487 327.84,264.259 326.282,262.523C323.344,259.248 322.873,254.31 322.813,252.022C322.799,251.485 322.809,251.096 322.82,250.91C322.822,250.867 322.823,250.828 322.821,250.791ZM360.657,111.944C360.011,111.986 359.51,112.524 359.516,113.171L359.899,162.187C359.905,162.856 360.449,163.396 361.118,163.397L383.304,163.412C383.386,163.412 383.467,163.404 383.547,163.388C384.271,163.241 391.547,162.121 396.977,157.237C400.268,154.278 402.902,149.964 403.07,143.685C403.161,140.319 403.294,139.444 403.356,137.142C403.394,135.749 403.406,133.836 403.367,130.546C403.292,124.168 400.602,119.819 397.201,116.875C391.895,112.281 384.804,111.177 383.292,111.127C381.055,111.053 377.672,111.126 374.194,111.255C367.597,111.5 360.657,111.944 360.657,111.944ZM361.964,114.307C364.197,114.173 369.338,113.876 374.285,113.693C377.697,113.566 381.017,113.492 383.212,113.565C384.56,113.609 390.873,114.621 395.605,118.719C398.552,121.27 400.863,125.047 400.928,130.575C400.966,133.817 400.955,135.703 400.918,137.076C400.856,139.378 400.723,140.253 400.632,143.619C400.485,149.085 398.21,152.848 395.346,155.423C390.622,159.672 384.351,160.763 383.197,160.972C383.193,160.973 362.329,160.958 362.329,160.958L361.964,114.307Z" style="fill:rgb(28,87,115);"/>
    <g transform="matrix(-0.492769,0.87016,-0.87016,-0.492769,1074.89,-375.518)">
        <path d="M648.693,138.132L649.093,148.814C649.093,148.814 652.273,153.794 662.416,157.537C676.355,162.68 724.253,178.59 724.253,178.59C724.253,178.59 733.813,178.775 735.347,178.894C736.881,179.012 656.468,132.577 656.468,132.577L648.693,138.132Z" style="fill:rgb(11,63,88);"/>
        <path d="M647.984,137.14C647.65,137.378 647.459,137.768 647.474,138.178L647.874,148.859C647.882,149.076 647.948,149.287 648.065,149.47C648.065,149.47 649.398,151.607 653.112,154.178C655.216,155.635 658.109,157.247 661.994,158.681C667.059,160.549 676.601,163.838 686.704,167.27C704.423,173.288 723.868,179.747 723.868,179.747C723.985,179.786 724.106,179.806 724.229,179.809C724.229,179.809 728.675,179.895 731.986,179.988C733.501,180.03 734.774,180.073 735.253,180.11C735.677,180.142 735.942,179.984 736.099,179.865C736.442,179.607 736.625,179.253 736.583,178.776C736.57,178.632 736.531,178.29 736.165,177.945C736.057,177.844 735.777,177.632 735.329,177.338C734.174,176.579 731.678,175.058 728.256,173.014C708.377,161.144 657.078,131.521 657.078,131.521C656.664,131.282 656.149,131.307 655.759,131.585L647.984,137.14ZM649.936,138.742L656.538,134.026C662.66,137.562 708.481,164.047 727.005,175.108C728.544,176.027 729.894,176.839 731.014,177.522C728.297,177.451 725.236,177.389 724.462,177.374C722.489,176.718 704.219,170.643 687.489,164.96C677.41,161.537 667.891,158.257 662.838,156.392C659.934,155.321 657.618,154.146 655.797,153.02C652.428,150.938 650.802,149.054 650.298,148.4L649.936,138.742Z" style="fill:rgb(11,63,88);"/>
    </g>
    <g transform="matrix(-0.512801,-0.858507,0.858507,-0.512801,870.929,746.904)">
        <path d="M648.693,138.132L649.093,148.814C649.093,148.814 652.273,153.794 662.416,157.537C676.355,162.68 724.253,178.59 724.253,178.59C724.253,178.59 733.813,178.775 735.347,178.894C736.881,179.012 656.468,132.577 656.468,132.577L648.693,138.132Z" style="fill:rgb(11,63,88);"/>
        <path d="M647.984,137.14C647.65,137.378 647.459,137.768 647.474,138.178L647.874,148.859C647.882,149.076 647.948,149.287 648.065,149.47C648.065,149.47 649.398,151.607 653.112,154.178C655.216,155.635 658.109,157.247 661.994,158.681C667.059,160.549 676.601,163.838 686.704,167.27C704.423,173.288 723.868,179.747 723.868,179.747C723.985,179.786 724.106,179.806 724.229,179.809C724.229,179.809 728.675,179.895 731.986,179.988C733.501,180.03 734.774,180.073 735.253,180.11C735.677,180.142 735.942,179.984 736.099,179.865C736.442,179.607 736.625,179.253 736.583,178.776C736.57,178.632 736.531,178.29 736.165,177.945C736.057,177.844 735.777,177.632 735.329,177.338C734.174,176.579 731.678,175.058 728.256,173.014C708.377,161.144 657.078,131.521 657.078,131.521C656.664,131.282 656.149,131.307 655.759,131.585L647.984,137.14ZM731.014,177.522C728.297,177.451 725.236,177.389 724.462,177.374C722.489,176.718 704.219,170.643 687.489,164.96C677.41,161.537 667.891,158.257 662.838,156.392C659.934,155.321 657.618,154.146 655.797,153.02C652.428,150.938 650.802,149.054 650.298,148.4L649.936,138.742L656.538,134.026C662.66,137.562 708.481,164.047 727.005,175.108C728.544,176.027 729.894,176.839 731.014,177.522Z" style="fill:rgb(11,63,88);"/>
    </g>
    <path d="M648.693,138.132L649.093,148.814C649.093,148.814 652.273,153.794 662.416,157.537C676.355,162.68 724.253,178.59 724.253,178.59C724.253,178.59 733.813,178.775 735.347,178.894C736.881,179.012 656.468,132.577 656.468,132.577L648.693,138.132Z" style="fill:rgb(11,63,88);"/>
    <path d="M647.984,137.14C647.65,137.378 647.459,137.768 647.474,138.178L647.874,148.859C647.882,149.076 647.948,149.287 648.065,149.47C648.065,149.47 649.398,151.607 653.112,154.178C655.216,155.635 658.109,157.247 661.994,158.681C667.059,160.549 676.601,163.838 686.704,167.27C704.423,173.288 723.868,179.747 723.868,179.747C723.985,179.786 724.106,179.806 724.229,179.809C724.229,179.809 728.675,179.895 731.986,179.988C733.501,180.03 734.774,180.073 735.253,180.11C735.677,180.142 735.942,179.984 736.099,179.865C736.442,179.607 736.625,179.253 736.583,178.776C736.57,178.632 736.531,178.29 736.165,177.945C736.057,177.844 735.777,177.632 735.329,177.338C734.174,176.579 731.678,175.058 728.256,173.014C708.377,161.144 657.078,131.521 657.078,131.521C656.664,131.282 656.149,131.307 655.759,131.585L647.984,137.14ZM649.936,138.742L656.538,134.026C662.66,137.562 708.481,164.047 727.005,175.108C728.544,176.027 729.894,176.839 731.014,177.522C728.297,177.451 725.236,177.389 724.462,177.374C722.489,176.718 704.219,170.643 687.489,164.96C677.41,161.537 667.891,158.257 662.838,156.392C659.934,155.321 657.618,154.146 655.797,153.02C652.428,150.938 650.802,149.054 650.298,148.4L649.936,138.742Z" style="fill:rgb(11,63,88);"/>
    <g transform="matrix(1.12201,0,0,1.17181,-28.6842,-39.236)">
        <path d="M228.899,143.839C262.321,143.839 289.456,169.959 289.456,202.131C289.456,234.303 262.321,260.423 228.899,260.423C195.476,260.423 168.342,234.303 168.342,202.131C168.342,169.959 195.476,143.839 228.899,143.839ZM228.899,146.608C260.734,146.608 286.579,171.487 286.579,202.131C286.579,232.775 260.734,257.654 228.899,257.654C197.064,257.654 171.218,232.775 171.218,202.131C171.218,171.487 197.064,146.608 228.899,146.608Z" style="fill:rgb(11,63,88);"/>
        <path d="M228.899,141.627C211.519,141.627 195.776,148.429 184.39,159.418C173.049,170.364 166.032,185.465 166.032,202.131C166.032,218.797 173.049,233.898 184.39,244.845C195.776,255.833 211.519,262.635 228.899,262.635C246.279,262.635 262.022,255.833 273.407,244.845C284.749,233.898 291.766,218.797 291.766,202.131C291.766,185.465 284.749,170.364 273.407,159.418C262.022,148.429 246.279,141.627 228.899,141.627ZM228.899,148.819C244.204,148.819 258.066,154.811 268.092,164.488C278.087,174.134 284.27,187.443 284.27,202.131C284.27,216.819 278.087,230.128 268.092,239.775C258.066,249.451 244.204,255.443 228.899,255.443C213.594,255.443 199.732,249.451 189.706,239.775C179.711,230.128 173.528,216.819 173.528,202.131C173.528,187.443 179.711,174.134 189.706,164.488C199.732,154.811 213.594,148.819 228.899,148.819Z" style="fill:rgb(11,63,88);"/>
    </g>
    <g transform="matrix(1.01416,0,0,0.985488,3.22884,-13.2873)">
        <path d="M221.77,158.459C251.126,158.459 274.96,183.358 274.96,214.027C274.96,244.696 251.126,269.595 221.77,269.595C192.414,269.595 168.581,244.696 168.581,214.027C168.581,183.358 192.414,158.459 221.77,158.459ZM221.77,176.415C241.641,176.415 257.773,193.268 257.773,214.027C257.773,234.786 241.641,251.64 221.77,251.64C201.9,251.64 185.768,234.786 185.768,214.027C185.768,193.268 201.9,176.415 221.77,176.415Z" style="fill:rgb(11,63,88);"/>
        <path d="M221.77,155.83C206.307,155.83 192.304,162.416 182.199,173.052C172.205,183.571 166.025,198.051 166.025,214.027C166.025,230.003 172.205,244.483 182.199,255.002C192.304,265.638 206.307,272.224 221.77,272.224C237.234,272.224 251.237,265.638 261.342,255.002C271.335,244.483 277.515,230.003 277.515,214.027C277.515,198.051 271.335,183.571 261.342,173.052C251.237,162.416 237.234,155.83 221.77,155.83ZM221.77,161.089C235.807,161.089 248.515,167.074 257.688,176.729C266.784,186.303 272.405,199.485 272.405,214.027C272.405,228.569 266.784,241.751 257.688,251.325C248.515,260.98 235.807,266.965 221.77,266.965C207.734,266.965 195.026,260.98 185.853,251.325C176.757,241.751 171.136,228.569 171.136,214.027C171.136,199.485 176.757,186.303 185.853,176.729C195.026,167.074 207.734,161.089 221.77,161.089ZM221.77,173.785C211.073,173.785 201.385,178.34 194.395,185.698C187.486,192.97 183.212,202.981 183.212,214.027C183.212,225.073 187.486,235.084 194.395,242.356C201.385,249.714 211.073,254.269 221.77,254.269C232.468,254.269 242.155,249.714 249.146,242.356C256.055,235.084 260.328,225.073 260.328,214.027C260.328,202.981 256.055,192.97 249.146,185.698C242.155,178.34 232.468,173.785 221.77,173.785ZM221.77,179.044C231.041,179.044 239.433,182.998 245.492,189.375C251.504,195.703 255.218,204.416 255.218,214.027C255.218,223.638 251.504,232.351 245.492,238.679C239.433,245.056 231.041,249.01 221.77,249.01C212.5,249.01 204.107,245.056 198.049,238.679C192.037,232.351 188.323,223.638 188.323,214.027C188.323,204.416 192.037,195.703 198.049,189.375C204.107,182.998 212.5,179.044 221.77,179.044Z" style="fill:rgb(11,63,88);"/>
    </g>
    <g transform="matrix(1.08934,0,0,1.10802,-25.355,-24.9215)">
        <ellipse cx="232.688" cy="200.998" rx="24.445" ry="24.294" style="fill:rgb(11,63,88);"/>
        <path d="M232.688,175.741C225.646,175.741 219.268,178.591 214.661,183.194C210.09,187.761 207.263,194.054 207.263,200.998C207.263,207.942 210.09,214.235 214.661,218.802C219.268,223.405 225.646,226.255 232.688,226.255C239.73,226.255 246.108,223.405 250.715,218.802C255.286,214.235 258.113,207.942 258.113,200.998C258.113,194.054 255.286,187.761 250.715,183.194C246.108,178.591 239.73,175.741 232.688,175.741ZM232.688,177.667C239.185,177.667 245.068,180.298 249.319,184.545C253.543,188.765 256.154,194.581 256.154,200.998C256.154,207.415 253.543,213.231 249.319,217.451C245.068,221.698 239.185,224.329 232.688,224.329C226.191,224.329 220.308,221.698 216.058,217.451C211.834,213.231 209.222,207.415 209.222,200.998C209.222,194.581 211.834,188.765 216.058,184.545C220.308,180.298 226.191,177.667 232.688,177.667Z" style="fill:rgb(11,63,88);"/>
    </g>
    <g transform="matrix(1.06281,0,0,1.08105,-13.4612,-10.5789)">
        <rect x="210.321" y="108.5" width="33.064" height="22.016" style="fill:rgb(11,63,88);"/>
    </g>
    <path d="M234.832,216.502L235.059,216.347L236.517,215.515C237.219,215.099 237.891,214.624 238.535,214.112C239.144,213.627 239.728,213.108 240.287,212.577C242.084,210.87 243.549,209.044 244.701,207.038C245.859,205.022 246.7,202.823 247.226,200.369C247.526,198.971 246.634,197.592 245.235,197.292C243.837,196.993 242.458,197.885 242.158,199.283C241.75,201.186 241.104,202.894 240.206,204.458C239.298,206.04 238.134,207.473 236.717,208.819C236.267,209.247 235.797,209.666 235.306,210.057C234.849,210.421 234.373,210.761 233.874,211.057L232.304,211.956C232.273,211.976 231.928,212.205 231.793,212.302C231.678,212.385 231.598,212.452 231.561,212.485C229.744,214.069 231.113,215.933 231.351,216.192C232.264,217.188 233.779,217.307 234.832,216.502Z" style="fill:white;"/>
    <g transform="matrix(1,0,0,1.14386,0,-17.9472)">
        <rect x="184.019" y="115.268" width="89.699" height="9.487" style="fill:rgb(11,63,88);"/>
    </g>
    <path d="M23.239,96.54L24.309,252.244C24.309,252.244 23.078,266.064 36.963,266.148C50.848,266.232 94.047,266.027 94.047,266.027C94.047,266.027 136.879,262.556 137.044,223.506C137.21,184.456 136.682,120.944 136.682,120.944C136.682,120.944 129.965,82.042 91.095,81.966C52.224,81.891 35.849,82.818 35.849,82.818C35.849,82.818 23.297,83.063 23.239,96.54ZM62.143,234.819L61.62,113.233L82.244,112.848C82.244,112.848 99.318,111.647 99.616,129.709C99.455,146.089 99.293,221.848 99.293,221.848M99.293,221.848C99.293,221.848 99.49,234.965 82.802,234.99C66.115,235.015 62.143,234.819 62.143,234.819" style="fill:rgb(28,87,115);"/>
    <path d="M21.105,96.53C21.105,96.538 21.105,96.546 21.105,96.554L22.174,252.189C22.121,253.122 21.925,259.286 25.698,263.676C27.878,266.214 31.343,268.248 36.95,268.282L94.057,268.161C94.111,268.161 94.165,268.159 94.219,268.155C94.219,268.155 112.569,266.659 125.775,254.858C133.243,248.185 139.116,238.266 139.178,223.515C139.23,211.326 139.214,196.754 139.168,182.474C139.066,150.993 138.816,120.926 138.816,120.926C138.815,120.81 138.805,120.695 138.785,120.581C138.785,120.581 135.81,103.316 122.488,91.284C115.351,84.838 105.269,79.86 91.099,79.832C77.29,79.805 66.317,79.905 57.906,80.045C42.962,80.293 36.083,80.668 35.742,80.687C35.16,80.709 29.138,81.051 25.009,85.499C22.833,87.842 21.128,91.317 21.105,96.53ZM25.374,96.539C25.392,92.712 26.539,90.124 28.137,88.403C31.259,85.039 35.891,84.952 35.891,84.952C35.917,84.951 35.943,84.95 35.97,84.949C35.97,84.949 42.76,84.565 57.977,84.312C66.368,84.173 77.315,84.074 91.09,84.1C103.964,84.125 113.143,88.596 119.628,94.452C131.12,104.831 134.223,119.454 134.549,121.145C134.571,123.722 134.803,152.461 134.9,182.487C134.946,196.757 134.962,211.317 134.91,223.497C134.854,236.746 129.639,245.681 122.931,251.675C111.272,262.094 95.25,263.773 93.958,263.893C93.95,263.893 36.976,264.014 36.976,264.014C32.999,263.99 30.482,262.694 28.935,260.895C25.959,257.431 26.434,252.433 26.434,252.433C26.441,252.365 26.443,252.297 26.443,252.229C26.443,252.229 25.385,98.225 25.374,96.539L25.374,96.539ZM59.486,113.242L60.009,234.828L60.01,234.85L60.012,234.932L60.02,235.039L60.034,235.145L60.035,235.153L60.04,235.176L60.053,235.249L60.055,235.258L60.063,235.293L60.077,235.352L60.079,235.361L60.092,235.407L60.105,235.452L60.108,235.462L60.127,235.517L60.139,235.551L60.142,235.561L60.166,235.622L60.177,235.648L60.181,235.658L60.21,235.721L60.219,235.742L60.224,235.752L60.257,235.816L60.266,235.834L60.271,235.844L60.307,235.905L60.317,235.923L60.323,235.933L60.36,235.99L60.373,236.009L60.379,236.019L60.416,236.071L60.432,236.093L60.439,236.103L60.475,236.148L60.495,236.174L60.503,236.183L60.537,236.222L60.562,236.251L60.57,236.26L60.602,236.293L60.633,236.326L60.641,236.334L60.669,236.361L60.707,236.396L60.716,236.404L60.74,236.425L60.784,236.464L60.793,236.471L60.815,236.488L60.865,236.527L60.874,236.534L60.893,236.547L60.948,236.587L60.958,236.593L60.976,236.604L61.035,236.643L61.045,236.649L61.063,236.659L61.125,236.694L61.135,236.7L61.155,236.71L61.217,236.742L61.227,236.746L61.252,236.758L61.312,236.785L61.322,236.789L61.355,236.802L61.409,236.823L61.419,236.827L61.464,236.842L61.509,236.857L61.518,236.86L61.576,236.876L61.611,236.886L61.619,236.888L61.692,236.904L61.715,236.91L61.723,236.911L61.828,236.93L61.935,236.943L62.043,236.951L62.048,236.951C62.2,236.958 64.164,237.045 70.39,237.094C73.416,237.118 77.459,237.132 82.806,237.124C88.595,237.116 92.541,235.631 95.254,233.674C101.278,229.328 101.426,222.478 101.427,221.861L101.427,221.853L101.75,129.73C101.75,129.711 101.75,129.692 101.75,129.674C101.637,122.829 99.301,118.477 96.359,115.675C90.813,110.393 82.852,110.68 82.145,110.716C82.175,110.715 61.58,111.099 61.58,111.099C60.414,111.121 59.481,112.076 59.486,113.242ZM97.159,221.862L97.159,221.844C97.159,221.844 97.482,129.727 97.482,129.708C97.387,124.387 95.706,120.948 93.415,118.766C88.933,114.497 82.394,114.977 82.394,114.977C82.358,114.979 82.321,114.981 82.284,114.982C82.284,114.982 63.763,115.328 63.763,115.328L64.269,232.744C65.537,232.772 67.5,232.803 70.423,232.826C73.44,232.849 77.47,232.864 82.799,232.856C87.416,232.849 90.593,231.773 92.756,230.212C97.207,227.002 97.159,221.88 97.159,221.88L97.159,221.862Z" style="fill:rgb(28,87,115);"/>
    <path d="M713.422,96.007L713.722,251.61C713.722,251.61 712.144,264.187 726.215,264.401C740.285,264.615 737.664,264.435 737.664,264.435C737.664,264.435 748.713,262.456 748.836,252.496C748.959,242.536 749.114,134.599 749.114,134.599L753.508,134.493L797.264,251.328C797.264,251.328 800.375,265.276 812.546,265.217C824.718,265.157 841.333,264.837 841.333,264.837C841.333,264.837 854.62,262.502 854.544,249.954C854.468,237.406 854.766,94.115 854.766,94.115C854.766,94.115 853.396,79.617 841.826,79.627C830.255,79.637 829.33,79.7 829.33,79.7C829.33,79.7 818.864,79.425 818.903,92.369C818.942,105.313 818.753,210.278 818.753,210.278L815.084,210.343L770.669,92.893C770.669,92.893 766.934,79.396 753.257,79.633C739.58,79.87 726.702,79.958 726.702,79.958C726.702,79.958 713.187,80.617 713.422,96.007Z" style="fill:rgb(28,87,115);"/>
    <path d="M738.596,265.641C740.075,265.263 743.652,264.126 746.429,261.438C748.516,259.419 750.17,256.551 750.22,252.513C750.261,249.168 750.306,234.776 750.348,217.13C750.422,185.695 750.484,143.933 750.496,135.95C750.496,135.95 752.557,135.901 752.557,135.901C752.557,135.901 795.938,251.734 795.938,251.734C796.13,252.518 797.573,257.955 801.55,261.999C804.098,264.591 807.66,266.625 812.553,266.601C816.186,266.583 820.214,266.542 824.079,266.493C833.171,266.379 841.359,266.221 841.359,266.221C841.431,266.22 841.502,266.213 841.572,266.2C841.572,266.2 847.542,265.152 851.76,260.771C854.122,258.317 855.958,254.842 855.928,249.946C855.902,245.718 855.919,226.641 855.953,203.205C856.019,157.096 856.15,94.118 856.15,94.118C856.15,94.073 856.148,94.029 856.144,93.985C856.144,93.985 855.38,86.201 850.552,81.629C848.461,79.649 845.638,78.24 841.824,78.243L829.237,78.319L829.367,78.316C829.367,78.316 823.756,78.157 820.236,82.811C818.679,84.87 817.505,87.895 817.519,92.373L817.37,208.918C817.37,208.918 816.034,208.942 816.034,208.942C816.034,208.942 771.983,92.454 771.983,92.454C771.787,91.793 769.996,86.127 765.074,82.166C762.245,79.89 758.396,78.16 753.233,78.249L726.693,78.574C726.673,78.574 726.654,78.575 726.635,78.576C726.635,78.576 719.913,78.898 715.586,84.256C713.511,86.826 711.957,90.56 712.038,96.017L712.038,96.017L712.337,251.544C712.261,252.363 711.882,258.1 715.815,262.04C717.863,264.093 721.082,265.707 726.194,265.785C732.615,265.883 735.571,265.898 736.886,265.886C737.662,265.879 737.969,265.852 738.06,265.837C738.309,265.796 738.479,265.716 738.596,265.641ZM737.231,263.12C737.113,263.117 736.99,263.117 736.861,263.118C735.555,263.13 732.617,263.114 726.236,263.017C722.087,262.954 719.436,261.751 717.774,260.085C714.454,256.758 715.095,251.783 715.095,251.783C715.102,251.725 715.106,251.666 715.106,251.608L714.806,96.005C714.806,95.999 714.806,95.992 714.806,95.986C714.735,91.359 715.981,88.173 717.74,85.995C721.121,81.807 726.288,81.373 726.738,81.342C726.75,81.342 753.281,81.017 753.281,81.017C757.663,80.941 760.937,82.39 763.338,84.323C767.862,87.963 769.335,93.262 769.335,93.262C769.347,93.303 769.36,93.343 769.375,93.383L813.789,210.832C813.996,211.379 814.524,211.737 815.108,211.727L818.777,211.662C819.531,211.649 820.136,211.035 820.137,210.281L820.287,92.365C820.276,88.682 821.164,86.174 822.444,84.481C825.089,80.984 829.294,81.083 829.294,81.083C829.337,81.085 829.38,81.084 829.423,81.081L841.827,81.011C845.656,81.008 848.213,82.813 849.917,85.063C852.7,88.739 853.311,93.551 853.381,94.177C853.376,96.585 853.249,157.999 853.185,203.201C853.151,226.647 853.134,245.733 853.16,249.963C853.184,253.978 851.703,256.839 849.766,258.851C846.469,262.275 841.915,263.309 841.192,263.455C840.158,263.475 832.492,263.619 824.044,263.725C820.186,263.774 816.166,263.815 812.54,263.833C808.53,263.852 805.612,262.182 803.524,260.058C799.78,256.251 798.615,251.027 798.615,251.027C798.601,250.965 798.583,250.903 798.56,250.843L754.804,134.008C754.597,133.456 754.064,133.095 753.475,133.11L749.081,133.215C748.33,133.233 747.731,133.846 747.73,134.597C747.73,134.597 747.661,182.225 747.58,217.124C747.538,234.755 747.493,249.137 747.452,252.479C747.413,255.63 746.133,257.873 744.504,259.449C741.518,262.339 737.42,263.072 737.42,263.072C737.355,263.084 737.292,263.1 737.231,263.12Z" style="fill:rgb(28,87,115);"/>
</svg>
